<svg width="45" height="35" viewBox="0 0 45 35" fill="none" xmlns="http://www.w3.org/2000/svg">
<path d="M23.9063 3.43749C21.5391 3.43632 19.2319 4.18186 17.313 5.56798C15.3942 6.95411 13.9614 8.91018 13.2188 11.1578C13.1663 11.3395 13.0778 11.5088 12.9584 11.6556C12.8391 11.8023 12.6913 11.9234 12.5241 12.0117C12.3568 12.1 12.1734 12.1537 11.9849 12.1695C11.7965 12.1853 11.6067 12.1629 11.4271 12.1036C11.2475 12.0444 11.0816 11.9495 10.9395 11.8247C10.7974 11.6999 10.6819 11.5476 10.6 11.3772C10.5181 11.2067 10.4714 11.0214 10.4628 10.8325C10.4541 10.6435 10.4837 10.4548 10.5497 10.2775C11.5259 7.32944 13.4502 4.78725 16.0225 3.04728C18.5947 1.30732 21.6704 0.467379 24.77 0.658415C27.8697 0.849452 30.8189 2.06073 33.1581 4.10339C35.4972 6.14606 37.0947 8.9053 37.7016 11.9509C39.8229 12.2375 41.7561 13.3196 43.1094 14.9781C44.4628 16.6366 45.1351 18.7476 44.9903 20.8833C44.8455 23.019 43.8943 25.0198 42.3295 26.4805C40.7647 27.9412 38.7031 28.7524 36.5625 28.75H12.6563C12.2833 28.75 11.9256 28.6018 11.6619 28.3381C11.3982 28.0744 11.25 27.7167 11.25 27.3437C11.25 26.9708 11.3982 26.6131 11.6619 26.3494C11.9256 26.0856 12.2833 25.9375 12.6563 25.9375H36.5625C38.0543 25.9379 39.4852 25.3456 40.5404 24.291C41.5955 23.2363 42.1885 21.8057 42.1889 20.3139C42.1893 18.822 41.597 17.3912 40.5424 16.336C39.4878 15.2809 38.0572 14.6879 36.5653 14.6875H36.4922C36.1445 14.6896 35.8084 14.5629 35.5487 14.3317C35.2891 14.1006 35.1242 13.7815 35.0859 13.4359C34.7781 10.6862 33.4678 8.14637 31.4054 6.30187C29.343 4.45738 26.6731 3.43761 23.9063 3.43749ZM0 16.0937C0 15.7208 0.148158 15.3631 0.411881 15.0994C0.675604 14.8356 1.03329 14.6875 1.40625 14.6875H15.4688C15.8417 14.6875 16.1994 14.8356 16.4631 15.0994C16.7268 15.3631 16.875 15.7208 16.875 16.0937C16.875 16.4667 16.7268 16.8244 16.4631 17.0881C16.1994 17.3518 15.8417 17.5 15.4688 17.5H1.40625C1.03329 17.5 0.675604 17.3518 0.411881 17.0881C0.148158 16.8244 0 16.4667 0 16.0937ZM5.625 21.7187C5.625 21.3458 5.77316 20.9881 6.03688 20.7244C6.3006 20.4606 6.65829 20.3125 7.03125 20.3125H32.3438C32.7167 20.3125 33.0744 20.4606 33.3381 20.7244C33.6018 20.9881 33.75 21.3458 33.75 21.7187C33.75 22.0917 33.6018 22.4494 33.3381 22.7131C33.0744 22.9768 32.7167 23.125 32.3438 23.125H7.03125C6.65829 23.125 6.3006 22.9768 6.03688 22.7131C5.77316 22.4494 5.625 22.0917 5.625 21.7187ZM0 32.9687C0 32.5958 0.148158 32.2381 0.411881 31.9744C0.675604 31.7106 1.03329 31.5625 1.40625 31.5625H26.7188C27.0917 31.5625 27.4494 31.7106 27.7131 31.9744C27.9768 32.2381 28.125 32.5958 28.125 32.9687C28.125 33.3417 27.9768 33.6994 27.7131 33.9631C27.4494 34.2268 27.0917 34.375 26.7188 34.375H1.40625C1.03329 34.375 0.675604 34.2268 0.411881 33.9631C0.148158 33.6994 0 33.3417 0 32.9687Z" fill="#184E7F"/>
</svg>
